<svg xmlns="http://www.w3.org/2000/svg" viewBox="0 0 82.95 49.72"><defs><style>.cls-1{fill:#1c2e63;}.cls-2{fill:#4e9e5a;}.cls-3{fill:#b41a20;}</style></defs><title>logo</title><g id="圖層_2" data-name="圖層 2"><g id="圖層_1-2" data-name="圖層 1"><path class="cls-1" d="M26,7.34a8.41,8.41,0,0,1,6.41,3.08c1,1.1,3.75,4.26,3.78,4.3l.12.14L47.13.08H39.75S36.69,3.91,36.5,4.17c-.68-.68-4-4.17-8.69-4.17-6.24,0-9.95,4-12.58,8.42C13.42,11.43,0,33.64,0,33.64H5.47c.12-.2,12.27-20.51,13.27-22.08A8.23,8.23,0,0,1,26,7.34Z"/><path class="cls-2" d="M66.66,6.11c-2.37-4-5.54-6-9.7-6C53.28.12,50.5,2,47.05,6.78,45.66,8.71,38,19.14,37,20.56c-.36-.5-1.58-2.17-3.36-4.36-2.75-3.36-4.77-4.61-7.47-4.61-3.56,0-5.4,1.94-7.57,5.52-.65,1.07-9.65,16.37-9.74,16.53H14.6l7-12c1.83-3,3.09-3,4.11-3s2.29.52,4.1,3c2.12,3,6.87,9.79,6.87,9.79S51,11.94,51.85,10.76c2.15-3,3.67-3.47,5.34-3.47,1.09,0,3.14.19,5,3.33l13.59,23h7.13Z"/><path class="cls-3" d="M62.09,16.12c-1.81-3.11-3-4.53-5.26-4.53-1.94,0-3.65,2-5.63,4.74L38.57,33.64h6.86l7.48-10.29c2.19-2.89,2.51-3.53,3.64-3.53s1.6.94,3.24,3.53l6,10.29h6.65Z"/><path class="cls-1" d="M20.67,49.72H17.14L8,40.92v8.8H4.49V36.66H8l9.11,8.74V36.66h3.53Z"/><path class="cls-1" d="M38.83,49.72H27.1a5.37,5.37,0,0,1-3.51-1.18,3.66,3.66,0,0,1-1.44-3V40.8a3.66,3.66,0,0,1,1.44-3,5.37,5.37,0,0,1,3.51-1.18H38.83v3H27.09q-1.42,0-1.41,1.09v4.79q0,1.09,1.41,1.09H38.83Z"/><path class="cls-1" d="M58,45.59a3.67,3.67,0,0,1-1.43,3A5.32,5.32,0,0,1,53,49.72H40.31V41.48h3.53v5.19H53q1.36,0,1.36-1.09V40.79q0-1.09-1.36-1.09H40.31v-3H53a5.31,5.31,0,0,1,3.49,1.18,3.67,3.67,0,0,1,1.43,3Z"/><path class="cls-1" d="M77.24,49.72H72.4l-7.58-7.31H74q1,0,1-1.35T74,39.7H63v10H59.43V36.66H74.15A4,4,0,0,1,77.37,38a4.73,4.73,0,0,1,0,6,4,4,0,0,1-3.22,1.37H72.79Z"/></g></g></svg>