<?xml version="1.0" encoding="UTF-8" standalone="no"?>
<svg
   viewBox="0 0 259.96286 259.96286"
   width="259.96286"
   height="259.96286"
   preserveAspectRatio="xMidYMid"
   version="1.1"
   id="svg1"
   sodipodi:docname="discord.svg"
   inkscape:version="1.3 (0e150ed6c4, 2023-07-21)"
   xmlns:inkscape="http://www.inkscape.org/namespaces/inkscape"
   xmlns:sodipodi="http://sodipodi.sourceforge.net/DTD/sodipodi-0.dtd"
   xmlns="http://www.w3.org/2000/svg"
   xmlns:svg="http://www.w3.org/2000/svg">
  <defs
     id="defs1" />
  <sodipodi:namedview
     id="namedview1"
     pagecolor="#ffffff"
     bordercolor="#000000"
     borderopacity="0.25"
     inkscape:showpageshadow="2"
     inkscape:pageopacity="0.0"
     inkscape:pagecheckerboard="0"
     inkscape:deskcolor="#d1d1d1"
     inkscape:zoom="2.723466"
     inkscape:cx="118.0481"
     inkscape:cy="130.5322"
     inkscape:window-width="1920"
     inkscape:window-height="1017"
     inkscape:window-x="-8"
     inkscape:window-y="-8"
     inkscape:window-maximized="1"
     inkscape:current-layer="svg1" />
  <rect
     style="fill:#5865f2;stroke-width:83.4671;stroke-linejoin:round;paint-order:markers stroke fill;fill-opacity:1"
     id="rect1"
     width="259.96286"
     height="259.96286"
     x="0"
     y="0" />
  <path
     d="m 218.6919,49.275947 a 208.502,208.502 0 0 0 -52.814,-16.597 c -2.275,4.113 -4.933,9.645 -6.766,14.046 -19.692,-2.961 -39.203,-2.961 -58.533,0 -1.832004,-4.4 -4.550004,-9.933 -6.846004,-14.046 a 207.809,207.809 0 0 0 -52.855,16.638 C 7.4538959,99.825947 -1.6071041,149.07895 2.9228959,197.63495 c 22.1690001,16.555 43.6530001,26.612 64.7750001,33.193 a 161.094,161.094 0 0 0 13.873,-22.849 136.413,136.413 0 0 1 -21.846,-10.632 108.636,108.636 0 0 0 5.356,-4.237 c 42.122004,19.702 87.890004,19.702 129.510004,0 a 131.66,131.66 0 0 0 5.355,4.237 136.07,136.07 0 0 1 -21.886,10.653 c 4.006,8.02 8.638,15.67 13.873,22.848 21.142,-6.58 42.646,-16.637 64.815,-33.213 5.316,-56.288 -9.08,-105.090003 -38.056,-148.360003 z M 87.309896,167.77395 c -12.645,0 -23.015,-11.805 -23.015,-26.18 0,-14.375 10.149,-26.2 23.015,-26.2 12.867004,0 23.236004,11.804 23.015004,26.2 0.02,14.375 -10.148,26.18 -23.015004,26.18 z m 85.051004,0 c -12.645,0 -23.014,-11.805 -23.014,-26.18 0,-14.375 10.148,-26.2 23.014,-26.2 12.867,0 23.236,11.804 23.015,26.2 0,14.375 -10.148,26.18 -23.015,26.18 z"
     fill="#5865f2"
     id="path1"
     style="fill:#ffffff;fill-opacity:1" />
</svg>
