<?xml version="1.0" encoding="UTF-8" standalone="no"?>
<svg
   viewBox="0 0 315.03973 315.03973"
   width="315.03973"
   height="315.03973"
   preserveAspectRatio="xMidYMid"
   version="1.1"
   id="svg1"
   sodipodi:docname="discord.svg"
   inkscape:version="1.3 (0e150ed6c4, 2023-07-21)"
   xmlns:inkscape="http://www.inkscape.org/namespaces/inkscape"
   xmlns:sodipodi="http://sodipodi.sourceforge.net/DTD/sodipodi-0.dtd"
   xmlns="http://www.w3.org/2000/svg"
   xmlns:svg="http://www.w3.org/2000/svg">
  <defs
     id="defs1" />
  <sodipodi:namedview
     id="namedview1"
     pagecolor="#ffffff"
     bordercolor="#000000"
     borderopacity="0.25"
     inkscape:showpageshadow="2"
     inkscape:pageopacity="0.0"
     inkscape:pagecheckerboard="0"
     inkscape:deskcolor="#d1d1d1"
     inkscape:zoom="1.361733"
     inkscape:cx="133.28604"
     inkscape:cy="124.47374"
     inkscape:window-width="1920"
     inkscape:window-height="1017"
     inkscape:window-x="-8"
     inkscape:window-y="-8"
     inkscape:window-maximized="1"
     inkscape:current-layer="svg1" />
  <rect
     style="fill:#5865f2;fill-opacity:1;stroke-width:101.151;stroke-linejoin:round;paint-order:markers stroke fill"
     id="rect1"
     width="315.03973"
     height="315.03973"
     x="0"
     y="0" />
  <path
     d="m 244.39444,77.181564 a 208.502,208.502 0 0 0 -52.814,-16.597 c -2.275,4.113 -4.933,9.645 -6.766,14.046 -19.692,-2.961 -39.203,-2.961 -58.533,0 -1.832,-4.4 -4.55,-9.933 -6.846,-14.046 a 207.809,207.809 0 0 0 -52.855003,16.638 c -33.424,50.508996 -42.485,99.762006 -37.955,148.318006 22.169,16.555 43.653,26.612 64.775,33.193 a 161.094,161.094 0 0 0 13.873003,-22.849 136.413,136.413 0 0 1 -21.846003,-10.632 108.636,108.636 0 0 0 5.356,-4.237 c 42.122003,19.702 87.890003,19.702 129.510003,0 a 131.66,131.66 0 0 0 5.355,4.237 136.07,136.07 0 0 1 -21.886,10.653 c 4.006,8.02 8.638,15.67 13.873,22.848 21.142,-6.58 42.646,-16.637 64.815,-33.213 5.316,-56.288 -9.08,-105.09001 -38.056,-148.360006 z m -131.382,118.498006 c -12.645,0 -23.015003,-11.805 -23.015003,-26.18 0,-14.375 10.149003,-26.2 23.015003,-26.2 12.867,0 23.236,11.804 23.015,26.2 0.02,14.375 -10.148,26.18 -23.015,26.18 z m 85.051,0 c -12.645,0 -23.014,-11.805 -23.014,-26.18 0,-14.375 10.148,-26.2 23.014,-26.2 12.867,0 23.236,11.804 23.015,26.2 0,14.375 -10.148,26.18 -23.015,26.18 z"
     fill="#5865f2"
     id="path1"
     style="fill:#ffffff;fill-opacity:1" />
</svg>
