<?xml version="1.0" encoding="UTF-8" standalone="no"?>
<svg
   viewBox="0 0 320 320"
   width="320"
   height="320"
   fill="currentColor"
   preserveAspectRatio="xMidYMid"
   version="1.1"
   id="svg1"
   sodipodi:docname="github.svg"
   inkscape:version="1.3 (0e150ed6c4, 2023-07-21)"
   xmlns:inkscape="http://www.inkscape.org/namespaces/inkscape"
   xmlns:sodipodi="http://sodipodi.sourceforge.net/DTD/sodipodi-0.dtd"
   xmlns="http://www.w3.org/2000/svg"
   xmlns:svg="http://www.w3.org/2000/svg">
  <defs
     id="defs1" />
  <sodipodi:namedview
     id="namedview1"
     pagecolor="#ffffff"
     bordercolor="#000000"
     borderopacity="0.25"
     inkscape:showpageshadow="2"
     inkscape:pageopacity="0.0"
     inkscape:pagecheckerboard="0"
     inkscape:deskcolor="#d1d1d1"
     inkscape:zoom="0.5635641"
     inkscape:cx="-43.473316"
     inkscape:cy="229.78753"
     inkscape:window-width="1920"
     inkscape:window-height="1017"
     inkscape:window-x="-8"
     inkscape:window-y="-8"
     inkscape:window-maximized="1"
     inkscape:current-layer="svg1" />
  <rect
     style="fill:#000000;stroke-width:88.2845;stroke-linejoin:round;paint-order:markers stroke fill"
     id="rect1"
     width="320"
     height="320"
     x="0"
     y="0" />
  <path
     d="m 159.49698,31.052368 c -70.684009,0 -128.001009,57.307 -128.001009,128.000992 0,56.554 36.676,104.535 87.535009,121.46 6.397,1.185 8.746,-2.777 8.746,-6.158 0,-3.052 -0.12,-13.135 -0.174,-23.83 -35.610009,7.742 -43.124009,-15.103 -43.124009,-15.103 -5.823,-14.795 -14.213,-18.73 -14.213,-18.73 -11.613,-7.944 0.876,-7.78 0.876,-7.78 12.853,0.902 19.621,13.19 19.621,13.19 11.416999,19.568 29.945009,13.911 37.249009,10.64 1.149,-8.272 4.466,-13.92 8.127,-17.116 -28.43101,-3.236 -58.318009,-14.212 -58.318009,-63.258 0,-13.975 5,-25.394 13.188,-34.358 -1.329,-3.224 -5.71,-16.24199 1.24,-33.873992 0,0 10.748999,-3.44 35.210009,13.121 10.21,-2.836 21.16,-4.258 32.038,-4.307 10.878,0.049 21.837,1.47 32.066,4.307 24.431,-16.56 35.165,-13.12 35.165,-13.12 6.967,17.630002 2.584,30.649992 1.255,33.872992 8.207,8.964 13.173,20.383 13.173,34.358 0,49.163 -29.944,59.988 -58.447,63.157 4.591,3.972 8.682,11.762 8.682,23.704 0,17.126 -0.148,30.91 -0.148,35.126 0,3.407 2.304,7.398 8.792,6.14 50.831,-16.943 87.461,-64.906 87.461,-121.441 0,-70.694992 -57.309,-128.001992 -127.999,-128.001992 z M 79.436971,213.39236 c -0.282,0.636 -1.283,0.827 -2.194,0.39 -0.929,-0.417 -1.45,-1.284 -1.15,-1.922 0.276,-0.655 1.279,-0.838 2.205,-0.399 0.93,0.418 1.46,1.293 1.139,1.931 z m 6.296,5.618 c -0.61,0.566 -1.804,0.303 -2.614,-0.591 -0.837,-0.892 -0.994,-2.086 -0.375,-2.66 0.63,-0.566 1.787,-0.301 2.626,0.591 0.838,0.903 1,2.088 0.363,2.66 z m 4.32,7.188 c -0.785,0.545 -2.067,0.034 -2.86,-1.104 -0.784,-1.138 -0.784,-2.503 0.017,-3.05 0.795,-0.547 2.058,-0.055 2.861,1.075 0.782,1.157 0.782,2.522 -0.019,3.08 z m 7.304,8.325 c -0.701,0.774 -2.196,0.566 -3.29,-0.49 -1.119,-1.032 -1.43,-2.496 -0.726,-3.27 0.71,-0.776 2.213,-0.558 3.315,0.49 1.11,1.03 1.45,2.505 0.701,3.27 z m 9.441999,2.81 c -0.31,1.003 -1.75,1.459 -3.199,1.033 -1.448,-0.439 -2.395,-1.613 -2.103,-2.626 0.301,-1.01 1.747,-1.484 3.207,-1.028 1.446,0.436 2.396,1.602 2.095,2.622 z m 10.74401,1.193 c 0.036,1.055 -1.193,1.93 -2.715,1.95 -1.53,0.034 -2.769,-0.82 -2.786,-1.86 0,-1.065 1.202,-1.932 2.733,-1.958 1.522,-0.03 2.768,0.818 2.768,1.868 z m 10.555,-0.405 c 0.182,1.03 -0.875,2.088 -2.387,2.37 -1.485,0.271 -2.861,-0.365 -3.05,-1.386 -0.184,-1.056 0.893,-2.114 2.376,-2.387 1.514,-0.263 2.868,0.356 3.061,1.403 z"
     fill="#545454"
     id="path1"
     style="fill:#ffffff" />
</svg>
