<?xml version="1.0" encoding="UTF-8" standalone="no"?>
<svg
   viewBox="0 0 1094.991 1094.991"
   class="bs q"
   version="1.1"
   id="svg1"
   sodipodi:docname="123.svg"
   width="1094.991"
   height="1094.991"
   inkscape:version="1.3 (0e150ed6c4, 2023-07-21)"
   xmlns:inkscape="http://www.inkscape.org/namespaces/inkscape"
   xmlns:sodipodi="http://sodipodi.sourceforge.net/DTD/sodipodi-0.dtd"
   xmlns="http://www.w3.org/2000/svg"
   xmlns:svg="http://www.w3.org/2000/svg">
  <defs
     id="defs1" />
  <sodipodi:namedview
     id="namedview1"
     pagecolor="#ffffff"
     bordercolor="#000000"
     borderopacity="0.25"
     inkscape:showpageshadow="2"
     inkscape:pageopacity="0.0"
     inkscape:pagecheckerboard="0"
     inkscape:deskcolor="#d1d1d1"
     inkscape:zoom="0.29365482"
     inkscape:cx="1316.1711"
     inkscape:cy="556.77615"
     inkscape:window-width="1920"
     inkscape:window-height="1017"
     inkscape:window-x="-8"
     inkscape:window-y="-8"
     inkscape:window-maximized="1"
     inkscape:current-layer="svg1" />
  <rect
     style="fill:#000000;stroke:#000000;stroke-width:18.8976;stroke-linejoin:round;paint-order:markers stroke fill"
     id="rect1"
     width="1794.624"
     height="1869.5419"
     x="-204.32152"
     y="-166.86258" />
  <path
     d="m 611.04952,559.42927 c 0,163.76 -131.85,296.52 -294.5,296.52 -162.65,0 -294.490002,-132.72 -294.490002,-296.52 0,-163.8 131.850002,-296.51 294.490002,-296.51 162.64,0 294.5,132.75 294.5,296.51 m 323.07,0 c 0,154.16 -65.93,279.12 -147.25,279.12 -81.32,0 -147.25,-125 -147.25,-279.12 0,-154.12 65.93,-279.12 147.25,-279.12 81.32,0 147.25,125 147.25,279.12 m 132.13998,0 c 0,138.12 -23.19,250.08 -51.79,250.08 -28.59998,0 -51.78998,-112 -51.78998,-250.08 0,-138.08 23.19,-250.08 51.79998,-250.08 28.61,0 51.78,111.97 51.78,250.08"
     id="path1"
     sodipodi:nodetypes="csssccsssccsssc"
     style="fill:#ffffff" />
</svg>
