<?xml version="1.0" encoding="UTF-8" standalone="no"?>
<svg
   width="32"
   height="32"
   viewBox="0 0 256 256"
   version="1.1"
   id="svg1"
   sodipodi:docname="pinterest.svg"
   inkscape:version="1.3 (0e150ed6c4, 2023-07-21)"
   xmlns:inkscape="http://www.inkscape.org/namespaces/inkscape"
   xmlns:sodipodi="http://sodipodi.sourceforge.net/DTD/sodipodi-0.dtd"
   xmlns="http://www.w3.org/2000/svg"
   xmlns:svg="http://www.w3.org/2000/svg">
  <defs
     id="defs1" />
  <sodipodi:namedview
     id="namedview1"
     pagecolor="#ffffff"
     bordercolor="#000000"
     borderopacity="0.25"
     inkscape:showpageshadow="2"
     inkscape:pageopacity="0.0"
     inkscape:pagecheckerboard="0"
     inkscape:deskcolor="#d1d1d1"
     inkscape:zoom="17.611378"
     inkscape:cx="16.012376"
     inkscape:cy="16.267892"
     inkscape:window-width="1920"
     inkscape:window-height="1017"
     inkscape:window-x="-8"
     inkscape:window-y="-8"
     inkscape:window-maximized="1"
     inkscape:current-layer="svg1" />
  <ellipse
     style="fill:#ffffff;stroke-width:649.978;stroke-linejoin:round;paint-order:markers stroke fill"
     id="path2"
     cx="125.82499"
     cy="129.67923"
     rx="124.46499"
     ry="124.91923" />
  <path
     fill="#CB1F27"
     d="M0 128.002c0 52.414 31.518 97.442 76.619 117.239c-.36-8.938-.064-19.668 2.228-29.393c2.461-10.391 16.47-69.748 16.47-69.748s-4.089-8.173-4.089-20.252c0-18.969 10.994-33.136 24.686-33.136c11.643 0 17.268 8.745 17.268 19.217c0 11.704-7.465 29.211-11.304 45.426c-3.207 13.578 6.808 24.653 20.203 24.653c24.252 0 40.586-31.149 40.586-68.055c0-28.054-18.895-49.052-53.262-49.052c-38.828 0-63.017 28.956-63.017 61.3c0 11.152 3.288 19.016 8.438 25.106c2.368 2.797 2.697 3.922 1.84 7.134c-.614 2.355-2.024 8.025-2.608 10.272c-.852 3.242-3.479 4.401-6.409 3.204c-17.884-7.301-26.213-26.886-26.213-48.902c0-36.361 30.666-79.961 91.482-79.961c48.87 0 81.035 35.364 81.035 73.325c0 50.213-27.916 87.726-69.066 87.726c-13.819 0-26.818-7.47-31.271-15.955c0 0-7.431 29.492-9.005 35.187c-2.714 9.869-8.026 19.733-12.883 27.421a127.897 127.897 0 0 0 36.277 5.249c70.684 0 127.996-57.309 127.996-128.005C256.001 57.309 198.689 0 128.005 0C57.314 0 0 57.309 0 128.002"
     id="path1" />
</svg>
