<?xml version="1.0" encoding="UTF-8" standalone="no"?>
<svg
   viewBox="0 0 256 256"
   width="256"
   height="256"
   preserveAspectRatio="xMidYMid"
   version="1.1"
   id="svg1"
   sodipodi:docname="spotify.svg"
   inkscape:version="1.3 (0e150ed6c4, 2023-07-21)"
   xmlns:inkscape="http://www.inkscape.org/namespaces/inkscape"
   xmlns:sodipodi="http://sodipodi.sourceforge.net/DTD/sodipodi-0.dtd"
   xmlns="http://www.w3.org/2000/svg"
   xmlns:svg="http://www.w3.org/2000/svg">
  <defs
     id="defs1" />
  <sodipodi:namedview
     id="namedview1"
     pagecolor="#ffffff"
     bordercolor="#000000"
     borderopacity="0.25"
     inkscape:showpageshadow="2"
     inkscape:pageopacity="0.0"
     inkscape:pagecheckerboard="0"
     inkscape:deskcolor="#d1d1d1"
     inkscape:zoom="3.1132812"
     inkscape:cx="128"
     inkscape:cy="128"
     inkscape:window-width="1920"
     inkscape:window-height="1017"
     inkscape:window-x="-8"
     inkscape:window-y="-8"
     inkscape:window-maximized="1"
     inkscape:current-layer="svg1" />
  <path
     d="M128 0C57.308 0 0 57.309 0 128c0 70.696 57.309 128 128 128 70.697 0 128-57.304 128-128C256 57.314 198.697.007 127.998.007l.001-.006Zm58.699 184.614c-2.293 3.76-7.215 4.952-10.975 2.644-30.053-18.357-67.885-22.515-112.44-12.335a7.981 7.981 0 0 1-9.552-6.007 7.968 7.968 0 0 1 6-9.553c48.76-11.14 90.583-6.344 124.323 14.276 3.76 2.308 4.952 7.215 2.644 10.975Zm15.667-34.853c-2.89 4.695-9.034 6.178-13.726 3.289-34.406-21.148-86.853-27.273-127.548-14.92-5.278 1.594-10.852-1.38-12.454-6.649-1.59-5.278 1.386-10.842 6.655-12.446 46.485-14.106 104.275-7.273 143.787 17.007 4.692 2.89 6.175 9.034 3.286 13.72v-.001Zm1.345-36.293C162.457 88.964 94.394 86.71 55.007 98.666c-6.325 1.918-13.014-1.653-14.93-7.978-1.917-6.328 1.65-13.012 7.98-14.935C93.27 62.027 168.434 64.68 215.929 92.876c5.702 3.376 7.566 10.724 4.188 16.405-3.362 5.69-10.73 7.565-16.4 4.187h-.006Z"
     fill="#1ED760"
     id="path1" />
  <path
     style="fill:#000000;stroke-width:26.81;stroke-linejoin:round;paint-order:markers stroke fill"
     d="m 178.17535,188.04225 c -0.66955,-0.16143 -2.76541,-1.18795 -4.65746,-2.28116 -14.48713,-8.37051 -29.79948,-13.25308 -48.89054,-15.58948 -6.56753,-0.80374 -26.456078,-0.79683 -33.887074,0.0118 -7.292083,0.7935 -14.744946,1.9541 -22.051314,3.43395 -7.192503,1.45679 -8.22347,1.51828 -10.22974,0.61011 -3.069644,-1.38952 -4.633704,-3.76597 -4.633704,-7.04051 0,-2.38746 0.699647,-4.01933 2.437427,-5.6851 1.536057,-1.4724 2.622809,-1.83741 9.774973,-3.2831 16.612737,-3.35799 31.163075,-4.76074 45.901852,-4.42524 22.01543,0.50113 40.66035,4.59912 58.61983,12.88412 6.12894,2.82738 13.42284,6.91508 14.80476,8.297 3.07948,3.07947 2.94708,8.36595 -0.2805,11.1998 -1.95757,1.71877 -4.58282,2.42855 -6.90851,1.86782 z"
     id="path2" />
  <path
     style="fill:#000000;stroke-width:26.81;stroke-linejoin:round;paint-order:markers stroke fill"
     d="m 191.19043,153.99691 c -0.57776,-0.17727 -2.81816,-1.3353 -4.97867,-2.57339 -14.93136,-8.55649 -32.60965,-14.51788 -52.26948,-17.62606 -23.62334,-3.73481 -49.877678,-2.42823 -70.664313,3.51671 -5.831067,1.66767 -8.814595,1.19041 -11.914113,-1.90584 -2.288565,-2.28615 -3.007581,-4.22554 -2.791728,-7.53008 0.17093,-2.61682 0.886471,-4.25712 2.645329,-6.06413 1.587953,-1.63143 2.947347,-2.27128 7.626783,-3.58982 22.708259,-6.3986 49.731152,-7.95554 75.258652,-4.3361 14.55207,2.06329 29.1488,5.87858 42.23839,11.04027 8.96001,3.53325 22.09146,10.409 24.52285,12.84039 1.85829,1.85829 2.61893,3.82548 2.61893,6.77317 0,2.0362 -0.15413,2.88255 -0.74247,4.07699 -0.97775,1.98501 -2.80357,3.82937 -4.69939,4.74712 -1.73152,0.83822 -5.14909,1.15288 -6.85077,0.63077 z"
     id="path3" />
  <path
     style="fill:#000000;stroke-width:26.81;stroke-linejoin:round;paint-order:markers stroke fill"
     d="m 206.15082,114.39703 c -0.65268,-0.24314 -2.604,-1.24059 -4.33626,-2.21656 -15.70219,-8.84673 -36.12256,-15.21312 -58.87855,-18.356363 -29.68387,-4.100178 -61.351296,-2.671148 -84.958595,3.833858 -5.430877,1.496482 -6.621873,1.624103 -9.164776,0.98205 -9.68381,-2.445046 -12.23609,-15.009806 -4.246031,-20.903017 4.288716,-3.163219 23.994188,-7.240974 43.764634,-9.056441 7.910821,-0.72643 32.292368,-0.823325 40.311168,-0.160202 31.01855,2.565111 56.01666,8.836249 77.73149,19.500072 10.1812,4.999832 12.62884,6.81025 14.33072,10.599855 1.10754,2.466178 1.06347,6.742308 -0.095,9.213878 -1.14863,2.45068 -3.45901,4.86012 -5.68325,5.92695 -1.46172,0.7011 -2.3599,0.887 -4.69806,0.9724 -1.90725,0.0697 -3.29461,-0.0448 -4.07754,-0.33648 z"
     id="path4" />
</svg>
