<?xml version="1.0" encoding="UTF-8" standalone="no"?>
<svg
   width="511.04364"
   height="511.04364"
   viewBox="0 0 511.04364 511.04364"
   fill="none"
   version="1.1"
   id="svg1"
   sodipodi:docname="suno.svg"
   inkscape:version="1.3.2 (091e20e, 2023-11-25, custom)"
   xmlns:inkscape="http://www.inkscape.org/namespaces/inkscape"
   xmlns:sodipodi="http://sodipodi.sourceforge.net/DTD/sodipodi-0.dtd"
   xmlns="http://www.w3.org/2000/svg"
   xmlns:svg="http://www.w3.org/2000/svg">
  <defs
     id="defs1" />
  <sodipodi:namedview
     id="namedview1"
     pagecolor="#ffffff"
     bordercolor="#000000"
     borderopacity="0.25"
     inkscape:showpageshadow="2"
     inkscape:pageopacity="0.0"
     inkscape:pagecheckerboard="0"
     inkscape:deskcolor="#d1d1d1"
     inkscape:zoom="1.0684019"
     inkscape:cx="324.31615"
     inkscape:cy="185.7915"
     inkscape:window-width="1920"
     inkscape:window-height="1051"
     inkscape:window-x="-9"
     inkscape:window-y="-9"
     inkscape:window-maximized="1"
     inkscape:current-layer="svg1" />
  <rect
     style="fill:#000000;stroke-width:1.22422"
     id="rect1"
     width="511.04364"
     height="511.04364"
     x="0"
     y="0" />
  <path
     fill-rule="evenodd"
     clip-rule="evenodd"
     d="m 111.80496,200.29914 c 17.2589,0 31.24999,22.3858 31.24999,50 h -37.49999 c 0,27.6142 -13.991103,50 -31.250003,50 -17.2589,0 -31.25,-22.3858 -31.25,-50 h 37.5 c 0,-27.6142 13.9911,-50 31.250003,-50 z m 309.14099,96.5446 c -6.615,0 -12.534,-1.4798 -17.757,-4.4393 -5.222,-2.9594 -9.313,-7.007 -12.273,-12.1425 -2.959,-5.1356 -4.439,-10.924 -4.439,-17.3652 0,-6.4412 1.48,-12.2296 4.439,-17.3652 2.96,-5.1356 7.051,-9.1831 12.273,-12.1425 5.223,-2.9595 11.142,-4.4393 17.757,-4.4393 6.528,0 12.404,1.4798 17.627,4.4393 5.222,2.9594 9.313,7.0069 12.273,12.1425 2.959,5.1356 4.439,10.924 4.439,17.3652 0,6.4412 -1.48,12.2296 -4.439,17.3652 -2.96,5.1355 -7.051,9.1831 -12.273,12.1425 -5.223,2.9595 -11.099,4.4393 -17.627,4.4393 z m 0,-13.84 c 3.569,0 6.703,-0.8269 9.401,-2.4807 2.785,-1.7409 4.918,-4.1346 6.398,-7.1811 1.566,-3.0465 2.35,-6.5283 2.35,-10.4452 0,-3.917 -0.784,-7.3987 -2.35,-10.4452 -1.48,-3.0465 -3.613,-5.3967 -6.398,-7.0505 -2.785,-1.7409 -5.919,-2.6114 -9.401,-2.6114 -3.569,0 -6.746,0.8705 -9.531,2.6114 -2.785,1.6538 -4.962,4.004 -6.528,7.0505 -1.48,3.0465 -2.22,6.5282 -2.22,10.4452 0,3.9169 0.74,7.3987 2.22,10.4452 1.566,3.0465 3.743,5.4402 6.528,7.1811 2.785,1.6538 5.962,2.4807 9.531,2.4807 z m -85.773,-53.0094 h -16.059 v 65.8048 h 16.059 v -35.9054 c 0,-3.2206 0.653,-6.0931 1.958,-8.6173 1.306,-2.5243 3.091,-4.4828 5.354,-5.8754 2.35,-1.4798 4.961,-2.2197 7.834,-2.2197 4.091,0 7.398,1.4363 9.923,4.3087 2.611,2.7854 3.917,6.4412 3.917,10.9675 v 37.3416 h 15.928 v -40.7363 c 0,-5.1356 -1.001,-9.6618 -3.003,-13.5788 -2.002,-4.004 -4.874,-7.094 -8.617,-9.2701 -3.743,-2.1761 -8.008,-3.2642 -12.795,-3.2642 -4.701,0 -8.879,1.001 -12.534,3.003 -3.569,1.915 -6.224,4.6569 -7.965,8.2256 z m -27.149,65.8047 h -15.929 v -10.1841 c -1.828,3.5688 -4.527,6.3542 -8.095,8.3562 -3.569,1.915 -7.704,2.8725 -12.404,2.8725 -4.875,0 -9.183,-1.0881 -12.926,-3.2642 -3.656,-2.1761 -6.528,-5.2226 -8.617,-9.1395 -2.002,-4.004 -3.003,-8.5738 -3.003,-13.7094 v -40.7363 h 16.059 v 37.3416 c 0,4.5263 1.262,8.2256 3.787,11.0981 2.524,2.7854 5.831,4.1781 9.923,4.1781 2.959,0 5.57,-0.6964 7.833,-2.0891 2.351,-1.4797 4.179,-3.4817 5.484,-6.006 1.306,-2.5242 1.959,-5.3967 1.959,-8.6173 v -35.9054 h 15.929 z m -119.687,-2.8724 c 5.223,2.6114 11.272,3.917 18.149,3.917 6.702,0 12.621,-1.088 17.757,-3.2641 5.135,-2.2632 9.139,-5.4402 12.012,-9.5313 2.872,-4.091 4.308,-8.9219 4.308,-14.4927 0,-6.3542 -1.436,-11.3157 -4.308,-14.8845 -2.873,-3.6558 -6.311,-6.2671 -10.315,-7.8339 -3.917,-1.5668 -9.053,-3.09 -15.407,-4.5698 -4.613,-1.0445 -8.225,-2.002 -10.837,-2.8724 -2.524,-0.9575 -4.657,-2.2631 -6.397,-3.9169 -1.654,-1.7409 -2.481,-3.9605 -2.481,-6.6589 0,-3.2206 1.306,-5.7884 3.917,-7.7033 2.611,-1.915 6.18,-2.8725 10.706,-2.8725 4.788,0 8.661,1.2187 11.621,3.6559 3.046,2.4372 4.743,5.6578 5.092,9.6618 h 16.451 c -0.261,-5.6578 -1.828,-10.6193 -4.701,-14.8844 -2.785,-4.2652 -6.658,-7.5293 -11.62,-9.79243 -4.874,-2.35017 -10.489,-3.52526 -16.843,-3.52526 -6.093,0 -11.533,1.08805 -16.32,3.26413 -4.788,2.08904 -8.531,5.09206 -11.229,9.00896 -2.611,3.83 -3.917,8.2256 -3.917,13.1871 0,6.1801 1.393,11.0981 4.178,14.7539 2.872,3.6558 6.267,6.3107 10.184,7.9645 4.004,1.6538 9.14,3.2641 15.407,4.8309 4.439,1.1316 7.921,2.1761 10.445,3.1336 2.611,0.9574 4.744,2.2631 6.398,3.9169 1.654,1.5668 2.48,3.6994 2.48,6.3977 0,3.917 -1.523,6.92 -4.569,9.009 -2.96,2.089 -6.964,3.1336 -12.012,3.1336 -5.484,0 -9.88,-1.5233 -13.187,-4.5698 -3.221,-3.0465 -5.049,-7.1376 -5.484,-12.2731 h -16.582 c 0.261,6.3541 1.872,11.9249 4.831,16.7123 3.047,4.7874 7.138,8.4867 12.273,11.098 z"
     fill="#ffffff"
     id="path1" />
</svg>
