<?xml version="1.0" encoding="UTF-8" standalone="no"?>
<svg
   aria-label="Threads"
   viewBox="0 0 250 250"
   version="1.1"
   id="svg1"
   sodipodi:docname="Threads.svg"
   width="250"
   height="250"
   inkscape:version="1.3 (0e150ed6c4, 2023-07-21)"
   xmlns:inkscape="http://www.inkscape.org/namespaces/inkscape"
   xmlns:sodipodi="http://sodipodi.sourceforge.net/DTD/sodipodi-0.dtd"
   xmlns="http://www.w3.org/2000/svg"
   xmlns:svg="http://www.w3.org/2000/svg">
  <defs
     id="defs1" />
  <sodipodi:namedview
     id="namedview1"
     pagecolor="#ffffff"
     bordercolor="#000000"
     borderopacity="0.25"
     inkscape:showpageshadow="2"
     inkscape:pageopacity="0.0"
     inkscape:pagecheckerboard="0"
     inkscape:deskcolor="#d1d1d1"
     inkscape:zoom="2.0755208"
     inkscape:cx="106.7202"
     inkscape:cy="120.6926"
     inkscape:window-width="1920"
     inkscape:window-height="1017"
     inkscape:window-x="-8"
     inkscape:window-y="-8"
     inkscape:window-maximized="1"
     inkscape:current-layer="svg1" />
  <rect
     style="fill:#000000;stroke-width:90.5035;stroke-linejoin:round;paint-order:markers stroke fill"
     id="rect1"
     width="250"
     height="250"
     x="0"
     y="0" />
  <path
     fill="#ffffff"
     d="m 172.23864,118.06923 a 66.667,66.667 0 0 0 -2.518,-1.143 c -1.482,-27.306997 -16.403,-42.939997 -41.457,-43.099997 h -0.34 c -14.98601,0 -27.44901,6.396 -35.120007,18.036 l 13.778997,9.451997 c 5.73,-8.694997 14.72401,-10.547997 21.34801,-10.547997 h 0.229 c 8.249,0.053 14.474,2.452 18.503,7.129 2.932,3.404997 4.893,8.110997 5.864,14.049997 -7.314,-1.243 -15.224,-1.626 -23.68,-1.14 -23.82001,1.371 -39.134007,15.264 -38.105007,34.568 0.522,9.792 5.4,18.216 13.734997,23.719 7.047,4.652 16.12401,6.927 25.55701,6.412 12.458,-0.683 22.231,-5.436 29.049,-14.127 5.178,-6.6 8.453,-15.153 9.899,-25.93 5.937,3.583 10.337,8.298 12.767,13.966 4.132,9.635 4.373,25.468 -8.546,38.376 -11.319,11.308 -24.925,16.2 -45.488,16.351 -22.80901,-0.169 -40.060007,-7.484 -51.275007,-21.742 -10.502,-13.351 -15.93,-32.635 -16.133,-57.317 0.203,-24.682 5.63,-43.965997 16.133,-57.316997 11.216,-14.258 28.465997,-21.573 51.275007,-21.743 22.975,0.17 40.526,7.52 52.171,21.847 5.71,7.026 10.015,15.86 12.853,26.162 l 16.147,-4.308 c -3.44,-12.68 -8.853,-23.606 -16.219,-32.668 -14.929,-18.366 -36.763,-27.778 -64.895,-27.973 h -0.113 c -28.075007,0.194 -49.665007,9.642 -64.169007,28.08 -12.906,16.405 -19.564,39.235 -19.787,67.851997 l -10e-4,0.068 v 0.067 c 0.224,28.617 6.882,51.447 19.788,67.854 14.504,18.437 36.094,27.885 64.169007,28.079 h 0.113 c 24.96,-0.173 42.554,-6.708 57.048,-21.189 18.963,-18.945 18.392,-42.692 12.142,-57.27 -4.484,-10.454 -13.033,-18.945 -24.723,-24.553 z m -43.097,40.519 c -10.44,0.588 -21.28601,-4.098 -21.82001,-14.135 -0.397,-7.442 5.296,-15.746 22.46101,-16.735 1.966,-0.114 3.895,-0.169 5.79,-0.169 6.235,0 12.068,0.606 17.371,1.765 -1.978,24.702 -13.58,28.713 -23.802,29.274 z"
     class="x19hqcy"
     id="path1" />
</svg>
