<svg width="47" height="47" viewBox="0 0 47 47" fill="none" xmlns="http://www.w3.org/2000/svg">
    <g clip-path="url(#clip0_8785_50897)">
        <path d="M14.3623 14.3343H0V0H14.3623V14.3343ZM5.99581 11.8495H8.46241V4.57519H11.2091V2.48094H3.15327V4.5637H5.99964L5.99581 11.8495Z" fill="#FB4725"/>
        <path d="M30.7271 14.3343H16.3647V0H30.7271V14.3343ZM24.7811 2.48094H22.3145V11.8495H24.7811V2.48094Z" fill="#FF7B39"/>
        <path d="M47.0919 14.3343H32.7334V0H47.0919V14.3343ZM37.9773 5.47108L40.8582 11.8495H44.1419V2.48094H41.8633V8.92066L39.0054 2.48094H35.6757V11.8495H37.9773V5.47108Z" fill="#FC9B3A"/>
        <path d="M14.3623 30.6671H0V16.3328H14.3623V30.6671ZM11.5083 18.8138H8.51612L5.68125 22.2595V18.8138H3.21464V28.1862H5.68125V24.3882L8.70409 28.1862H11.8036L7.53024 23.209L11.5083 18.8138Z" fill="#22B45C"/>
        <path d="M30.7271 30.6671H16.3647V16.3328H30.7271V30.6671ZM26.7721 26.3868H22.7864V24.304H26.469V22.5046H22.7864V20.7089H26.5803V18.7946H20.3313V28.1862H26.7721V26.3868Z" fill="#91CA06"/>
        <path d="M32.7334 16.3328V30.6671H47.0919V16.3328H32.7334ZM41.4682 28.2015L40.6089 25.7972C40.2253 24.7519 40.045 24.4993 39.2317 24.4993H38.7446V28.19H36.3623V18.8138H40.0987C42.2124 18.8138 43.4706 19.7824 43.4706 21.3943C43.4808 21.883 43.3346 22.3622 43.0531 22.7623C42.7716 23.1624 42.3696 23.4624 41.9055 23.6187C42.3578 23.9681 42.6891 24.4501 42.853 24.997L44.1189 28.1862L41.4682 28.2015Z" fill="#D6D230"/>
        <path d="M39.4428 20.6132H38.7446V22.696H39.4006C40.141 22.696 41.0233 22.5084 41.0233 21.5819C41.0118 20.8812 40.5706 20.6132 39.4428 20.6132Z" fill="#D6D230"/>
        <path d="M14.3623 47H0V32.6657H14.3623V47ZM10.3958 42.4057C9.82309 42.6462 9.20642 42.7648 8.58517 42.7541C6.8129 42.7541 5.75414 41.6706 5.75414 39.852C5.75414 38.1138 6.90496 36.9422 8.62737 36.9422C9.22701 36.9459 9.82054 37.0628 10.3766 37.2868L10.6873 37.4132L10.7948 35.4146L10.6145 35.361C9.86586 35.1471 9.09147 35.0363 8.31281 35.0318C5.35135 35.0318 3.20314 37.0571 3.20314 39.852C3.17676 40.5134 3.29212 41.1728 3.54152 41.7862C3.79091 42.3995 4.1686 42.9527 4.64934 43.4088C5.67457 44.2667 6.98372 44.7117 8.32048 44.6569C9.11725 44.6713 9.91006 44.5416 10.6605 44.274L10.8216 44.2128L10.7104 42.2602L10.3958 42.4057Z" fill="#0066B6"/>
        <path d="M22.3452 40.4493H24.643L23.5075 37.3136L22.3452 40.4493Z" fill="#429ACC"/>
        <path d="M16.3647 32.6657V47H30.7271V32.6657H16.3647ZM26.0125 44.5344L25.2453 42.264H21.7928L20.9911 44.5344H18.513L22.0805 35.1658H24.9959L28.5827 44.5344H26.0125Z" fill="#429ACC"/>
        <path d="M38.94 36.946H38.3301V42.7196H38.7137C40.6317 42.7196 41.6406 41.6514 41.6406 39.7065C41.6406 37.953 40.6816 36.946 38.94 36.946Z" fill="#6CBADD"/>
        <path d="M32.7334 32.6657V47H47.0919V32.6657H32.7334ZM38.9939 44.5344H35.8636V35.1504H39.2356C42.4234 35.1504 44.1803 36.7699 44.1803 39.7065C44.1803 42.7158 42.2431 44.5191 38.9939 44.5191V44.5344Z" fill="#6CBADD"/>
    </g>
    <defs>
        <clipPath id="clip0_8785_50897">
            <rect width="47" height="47" fill="white"/>
        </clipPath>
    </defs>
</svg>